<?xml version="1.0" encoding="UTF-8"?>
<svg version="1.1" viewBox="0 0 401 89" xml:space="preserve" xmlns="http://www.w3.org/2000/svg">
    <g style="fill: #1D1D1B">
        <path d="m24.4 60.15c-3.1 3.5-8 6.3-11.8 6.3-3 0-6.3-2.4-6.3-5.9 0-5.3 6-8.9 18.2-11v10.6zm-17.7-18.4c1-2.6 3.9-6 9.8-6 4.6 0 7.9 1.9 7.9 7v2.1c-17.1 3-23.5 7.2-23.5 15.6 0 7 5 10.6 10.9 10.6 5.8 0 10-3.1 12.7-6.1l0.6 5.3h5.5c-0.5-2-0.9-4.1-0.9-8.3v-19.2c0-8.4-6.8-11.5-13.3-11.5-7.2 0-12 3.7-14.4 8.1z"/>
        <path d="m35.3 31.95v38.4h5.3v-28.7c2.4-2.6 7-5.8 11-5.8 3.8 0 6.3 1.7 6.3 6.8v27.8h5.3v-28c0-8.3-5.4-11.2-11.1-11.2-4.4 0-8.3 2.5-11.4 5.9h-0.1v-5.2z"/>
        <path d="m69.6 70.35h5.3v-38.4h-5.3zm0-47.7h5.3v-6.3h-5.3z"/>
        <path d="m85.9 70.35v-28.6c2.9-2.8 6-5.9 10.7-5.9 3.4 0 6 1.9 6 7.1v27.5h5.3v-28.7c2.9-2.8 6-5.9 10.7-5.9 3.4 0 6 1.9 6 7.1v27.5h5.3v-27.6c0-9.5-5.5-11.7-10.6-11.7-4.5 0-8.8 2.4-12.2 6.1-1.4-3.5-4.9-6.1-9.8-6.1-3.7 0-7.9 1.9-11.1 5.5l-0.3 0.3v-5.1h-5.3v38.4h5.3z"/>
        <path d="m156.6 60.15c-3.1 3.5-8 6.3-11.8 6.3-3 0-6.3-2.4-6.3-5.9 0-5.3 6-8.9 18.2-11zm-17.7-18.4c1-2.6 3.9-6 9.8-6 4.6 0 7.9 1.9 7.9 7v2.1c-17.1 3-23.5 7.2-23.5 15.6 0 7 5 10.6 10.9 10.6 5.8 0 10-3.1 12.7-6.1l0.6 5.3h5.5c-0.5-2-0.9-4.1-0.9-8.3v-19.2c0-8.4-6.8-11.5-13.3-11.5-7.2 0-12 3.7-14.4 8.1z"/>
        <rect x="167.2" y="17.05" width="5.3" height="53.3"/>
        <polygon transform="translate(0,16.35)" points="187 37.1 200.1 37.1 200.1 31 187 31 187 21.9 205 21.9 205 15.7 179.7 15.7 179.7 53.9 205.6 53.9 205.6 47.8 187 47.8"/>
        <path d="m239.7 67.05c-1.9-0.1-3.5-0.7-4.8-1.7 2.5-3.4 3.8-8.1 3.8-14.1 0-12.5-5.6-19.6-16-19.6s-16 7.1-16 19.6 5.6 19.6 16 19.6c3.2 0 5.9-0.6 8.1-1.9 3.2 3.4 4.1 4.2 8.9 4.2zm-17-7c2.1 0.4 3.4 1.7 4.6 3.3-1.2 0.8-2.8 1.3-4.6 1.3-6 0-8.8-4.6-8.7-13.5 0-8.9 2.8-13.5 8.7-13.5 6 0 8.7 4.6 8.7 13.5 0 2.9-0.3 5.3-0.9 7.3-1.9-2.8-4.1-4.5-7.8-4.9z"/>
        <path d="m264.3 56.35c0 6.2-2.4 8.4-7.4 8.4s-7.4-2.2-7.4-8.4v-24.3h-7.3v23.9c0 11.2 6.9 14.8 14.7 14.8s14.7-3.7 14.7-14.8v-23.9h-7.3z"/>
        <path d="m272.3 70.25h7.3l2.3-8.3h12.1l2.1 8.3h7.3l-10.9-38.2h-9.1zm15.7-30.8h0.1l4.3 16.6h-8.9z"/>
        <polygon transform="translate(0,16.35)" points="312.9 15.7 305.6 15.7 305.6 53.9 329.5 53.9 329.5 47.8 312.9 47.8"/>
        <rect x="333.6" y="32.05" width="7.3" height="38.2"/>
        <polygon transform="translate(0,16.35)" points="353.6 53.9 360.9 53.9 360.9 21.9 370.9 21.9 370.9 15.7 343.6 15.7 343.6 21.9 353.6 21.9"/>
        <polygon transform="translate(0,16.35)" points="372.9 15.7 383.5 38.7 383.5 53.9 390.8 53.9 390.8 38.7 401.3 15.7 393.7 15.7 387.1 30.9 380.5 15.7"/>
    </g>
</svg>
