<svg width="212" height="41" viewBox="0 0 212 41" fill="none" xmlns="http://www.w3.org/2000/svg">
<g clip-path="url(#clip0_11153_787)">
<path fill-rule="evenodd" clip-rule="evenodd" d="M22.4589 40.1652H8.45681C8.26126 39.8798 8.02363 39.5505 7.7548 39.178C5.44318 35.9745 0.825195 29.5749 0.825195 20.4262C0.825195 11.2859 5.4347 4.88969 7.74843 1.67912C8.01987 1.30246 8.25972 0.969651 8.45681 0.681396H22.4589C15.5957 4.58813 10.9733 11.9734 10.9733 20.4262C10.9733 28.8791 15.6016 36.2585 22.4589 40.1652ZM44.8903 0.681396H58.8923C59.0895 0.96977 59.3294 1.30274 59.601 1.67958C61.9149 4.89025 66.5239 11.2857 66.5239 20.4204C66.5239 29.555 61.9149 35.9505 59.601 39.1611C59.3294 39.538 59.0895 39.871 58.8923 40.1593H44.8903C51.7534 36.2585 56.3758 28.8732 56.3758 20.4204C56.3758 11.9675 51.7476 4.58813 44.8903 0.681396Z" fill="#FF8E05"/>
<path d="M47.3982 22.0412C48.2926 14.4611 42.8729 7.5911 35.2928 6.69662C27.7127 5.80214 20.8427 11.2219 19.9482 18.802C19.0537 26.3821 24.4735 33.2521 32.0536 34.1466C39.6337 35.0411 46.5037 29.6213 47.3982 22.0412Z" fill="#0062FB"/>
<path fill-rule="evenodd" clip-rule="evenodd" d="M137.086 16.0796C132.716 16.0796 129.495 12.6421 129.495 8.272C129.495 3.90186 132.698 0.42334 137.15 0.42334C139.895 0.42334 141.538 1.39709 143.051 2.82252L141.884 4.07783C140.611 2.86945 139.18 2.00128 137.127 2.00128C133.777 2.00128 131.267 4.70549 131.267 8.23094C131.267 11.7564 133.795 14.5016 137.127 14.5016C139.203 14.5016 140.564 13.7039 142.013 12.3195L143.139 13.4223C141.561 15.0237 139.831 16.0796 137.086 16.0796ZM88.4628 11.6683H88.3748L82.8608 3.57918V15.8156H81.1948V0.681396H82.9253L88.4393 8.94067L93.9533 0.681396H95.6838V15.8156H93.9768V3.55572L88.4628 11.6625V11.6683ZM181.432 36.1001C181.432 33.7479 179.866 32.5102 176.476 31.771V31.7769C173.126 31.0554 172.346 30.1931 172.346 28.797C172.346 27.4009 173.607 26.3157 175.584 26.3157C177.15 26.3157 178.564 26.8202 179.978 27.9699L180.975 26.6442C179.432 25.4006 177.842 24.7729 175.625 24.7729C172.739 24.7729 170.627 26.4272 170.627 28.9495C170.627 31.4719 172.235 32.5981 175.737 33.3607C178.933 34.0353 179.696 34.8389 179.696 36.2761C179.696 37.8189 178.417 38.8865 176.306 38.8865C174.194 38.8865 172.674 38.1708 171.085 36.7337L170.017 37.9948C171.842 39.6256 173.824 40.4292 176.235 40.4292C179.256 40.4292 181.432 38.7281 181.432 36.1001ZM95.6368 40.1652H93.8008L92.0762 36.2702H83.8404L82.0923 40.1652H80.3442L87.1898 25.031H88.7912L95.6368 40.1652ZM87.97 27.0196L84.5091 34.7392H91.4074L87.97 27.0196ZM155.464 40.1652H153.628L151.903 36.2702H143.667L141.919 40.1652H140.171L147.017 25.031H148.618L155.464 40.1652ZM147.797 27.0196L144.336 34.7392H151.234L147.797 27.0196ZM111.428 25.031H109.762V37.1618L100.23 25.031H98.6284V40.1652H100.294V27.7528L110.067 40.1652H111.428V25.031ZM117.916 25.031V40.1652H116.209V25.031H117.916ZM129.871 36.018H129.959V36.0121L135.473 27.9053V40.1652H137.18V25.031H135.449L129.935 33.2903L124.421 25.031H122.691V40.1652H124.357V27.9288L129.871 36.018ZM158.45 25.031H160.157V38.5872H167.642V40.1652H158.45V25.031ZM102.089 2.24174H111.322V0.681396H100.382V15.8156H111.428V14.2611H102.089V8.96414H109.815V7.40966H102.089V2.24174ZM125.266 15.8156L120.878 9.93202H116.555V15.8156H114.848V0.681396H121.353C124.685 0.681396 126.826 2.47638 126.826 5.19819C126.826 7.72642 125.096 9.19877 122.72 9.63286L127.366 15.8156H125.266ZM121.224 2.25934H116.555V8.401H121.201C123.471 8.401 125.09 7.23368 125.09 5.26858C125.09 3.30348 123.664 2.26521 121.218 2.26521L121.224 2.25934ZM205.512 9.93202L209.9 15.8156H212L207.354 9.63286C209.73 9.19877 211.46 7.72642 211.46 5.19819C211.46 2.47638 209.319 0.681396 205.987 0.681396H199.482V15.8156H201.189V9.93202H205.512ZM201.189 2.25934H205.858L205.852 2.26521C208.298 2.26521 209.724 3.30348 209.724 5.26858C209.724 7.23368 208.105 8.401 205.835 8.401H201.189V2.25934ZM151.141 15.8156H152.865V9.80297L159.159 0.681396H157.171L152.026 8.24849L146.923 0.681396H144.846L151.141 9.82643V15.8156ZM178.576 2.25934H169.407V7.66776H177.602V9.22224H169.407V15.8156H167.7V0.681396H178.576V2.25934ZM180.629 8.272C180.629 12.4662 183.72 16.0796 188.325 16.0796C192.936 16.0796 196.068 12.4251 196.068 8.23094C196.068 4.03677 192.983 0.42334 188.372 0.42334C183.761 0.42334 180.629 4.07783 180.629 8.272ZM182.4 8.23094C182.4 4.77002 184.864 2.00128 188.325 2.00128C191.78 2.00128 194.291 4.81108 194.291 8.272C194.291 11.7329 191.821 14.5016 188.366 14.5016C184.911 14.5016 182.4 11.6919 182.4 8.23094Z" fill="#002764"/>
</g>
<defs>
<clipPath id="clip0_11153_787">
<rect width="211.175" height="40" fill="white" transform="translate(0.825195 0.42334)"/>
</clipPath>
</defs>
</svg>
