<?xml version="1.0" encoding="UTF-8"?><svg id="Ebene_1" xmlns="http://www.w3.org/2000/svg" xmlns:xlink="http://www.w3.org/1999/xlink" viewBox="0 0 67.34 41"><defs><clipPath id="clippath"><rect x=".825" y=".423" width="211.175" height="40" fill="none"/></clipPath></defs><g clip-path="url(#clippath)"><path d="M22.459,40.165h-14.002c-.196-.285-.433-.615-.702-.987-2.312-3.204-6.93-9.603-6.93-18.752S5.435,4.89,7.748,1.679c.271-.377.511-.709.708-.998h14.002c-6.863,3.907-11.486,11.292-11.486,19.745s4.628,15.832,11.486,19.739ZM44.89.681h14.002c.197.288.437.621.709.998,2.314,3.211,6.923,9.606,6.923,18.741s-4.609,15.53-6.923,18.741c-.272.377-.512.71-.709.998h-14.002c6.863-3.901,11.486-11.286,11.486-19.739S51.748,4.588,44.89.681Z" fill="#ff8e05" fill-rule="evenodd"/><path d="M47.398,22.041c.894-7.58-4.525-14.45-12.105-15.345-7.58-.894-14.45,4.525-15.345,12.105-.895,7.58,4.525,14.45,12.105,15.345,7.58.895,14.45-4.525,15.345-12.105Z" fill="#0062fb"/></g></svg>