<?xml version="1.0" encoding="utf-8"?>
<!-- Generator: Adobe Illustrator 25.4.1, SVG Export Plug-In . SVG Version: 6.00 Build 0)  -->
<svg version="1.1" id="Group_24" xmlns="http://www.w3.org/2000/svg" xmlns:xlink="http://www.w3.org/1999/xlink" x="0px" y="0px"
	 viewBox="0 0 116.2 117.1" style="enable-background:new 0 0 116.2 117.1;" xml:space="preserve">
<ellipse fill="#2375C9" id="Ellipse_2" class="st0" cx="58.1" cy="58.6" rx="58.1" ry="58.6"/>
<g id="Group_14" transform="translate(11.534 42.593)">
	<path fill="#FFFFFF" id="Path_5" class="st1" d="M17.9,0H9L0,33.7h7.5l3.6-13.1l-0.4,1.7c5,0.4,16.1,0.5,17.7-11.8C30-1.3,17.9,0,17.9,0z
		 M18.7,14.1c-2.5,2.4-6.1,1.5-6.1,1.5l1-3.8l1.4-5c0.5,0,4.2-0.4,5.2,0.4C21.2,8.2,20.4,12.5,18.7,14.1L18.7,14.1z"/>
	<path fill="#FFFFFF" id="Path_6" class="st1" d="M51,2.6c-0.6-0.9-1.5-1.7-2.5-2C42-1.5,36.8,3.4,33.1,8.1c-3.7,5-5.8,11-6,17.2
		c0.2,3.7,1.1,7.8,4.8,9.2c6.1,1.5,10.7-3.7,14-8c0.4-0.6,1-1.1,1-1.9c-0.3-0.1-0.5-0.4-0.8-0.4c-0.7,1-1.5,2-2.3,3
		c-2.1,2.1-4.8,3.7-7.9,3c-3.4-1.5-3.5-5.5-3.2-9c0.2-1.3,0.5-2.6,0.9-3.9l2.3-0.7c5.1-1.7,11.1-2,14.5-7.2
		C51.4,7.7,52.4,4.7,51,2.6L51,2.6z M39.6,13.9c-6.9,2.3-5.2,1.3-5.2,1.3s5.3-15.8,10.7-14C50.6,3.1,46.6,11.7,39.6,13.9L39.6,13.9z
		"/>
	<path fill="#FFFFFF" id="Path_7" class="st1" d="M54.9,0.2L77.1,0l-1.9,7.3l-7.3,0.1l-7.4,26.3h-8.1l7.1-26.3h-6.7L54.9,0.2z"/>
	<path fill="#FFFFFF" id="Path_8" class="st1" d="M83.6,0.1L67.4,33.7h8.4l2.6-5.5h7.5v5.5l7.3,0V0L83.6,0.1L83.6,0.1z M81.3,21.5l4.4-9.6l0-0.1
		v9.7H81.3z"/>
</g>
</svg>
