<?xml version="1.0" encoding="UTF-8"?><svg id="Ebene_1" xmlns="http://www.w3.org/2000/svg" viewBox="0 0 1673 1873.229"><path d="M1164.477,798.049c53.032,58.323,58.309,238.582,193.5,167.005,79.514-42.409,79.514-222.669-29.155-288.941-87.504-50.373-135.205,18.559-167.018,103.378-2.632,7.95-2.632,13.255,2.672,18.559h0ZM955.063,768.894c-58.309,45.068-95.427,174.955-198.805,129.887-84.818-42.409-92.769-206.768,53.018-283.637,100.732-47.714,151.105,45.068,151.105,143.141-.013,2.646-2.659,7.95-5.318,10.609h0ZM1092.913,1094.94c55.664-5.291,42.409-58.309,0-68.918-37.118-13.255-92.782-21.205-135.191-18.559-71.577,0-68.918,55.664-31.827,66.273,29.168,7.95,47.7,10.596,71.564,42.409,21.218,42.423,10.622-13.255,95.454-21.205h0ZM1355.345,172.453c68.918-116.632,190.855-95.427,251.837-37.105,66.286,63.614,79.527,137.837,53.032,188.209-34.473,68.918-124.582,151.105-182.905,71.577-26.482-37.105-79.527-79.527-111.328-90.136-45.108-21.205-53.045-60.982-10.636-132.546Z" fill="#272728"/><path d="M1633.691,684.063c-5.291-21.205-15.914-18.559-15.914-2.646,5.305,212.06-121.923,440.046-392.305,442.691-68.918,0-47.7,108.695-174.955,53.018-90.136-60.968-143.154,60.968-206.782-68.918-15.9-37.118-37.118-53.018-63.627-60.968-267.737-66.273-352.568-434.741-116.632-731.633,45.068,29.168,63.614,34.459,113.987-13.255,23.864-23.864,68.918-50.373,92.769-58.323,55.664-21.205,87.491-45.068,37.105-153.75-23.195-51.201-54.795-78.472-88.466-90.136h-90.043c-25.745,7.662-49.749,20.27-70.669,37.118-68.918,55.664-113.987,143.141-29.181,246.532-238.542,161.7-280.951,360.505-275.66,535.46,5.291,182.905-39.764,167.005,18.559,352.555,5.291,15.914-7.95,15.914-15.9,10.622-249.178-159.055-384.369-646.814,5.304-914.551,7.95-7.95,5.304-18.559-26.509,0C-1.897,445.494-33.698,790.099,21.966,1023.376c26.509,111.328-13.255,132.546,29.168,280.991,100.732,307.5,185.55,333.983,307.487,341.96,220.023,0,68.918-121.937,79.527-273.041,0-10.622,10.609-13.255,15.9,5.291,121.937,270.369,206.768,516.914,524.864,493.051,182.891-23.85,82.16-113.987,68.905-167.018-135.178-447.969,193.5-554.006,100.732-116.632-60.955,251.836,132.546,225.314,270.382,135.191,140.509-90.11,315.49-702.451,214.759-1039.106h0ZM1098.204,1216.877c-31.814,79.541-188.209,53.032-193.514-26.496,0-2.646,5.305-2.646,5.305,0,71.564,15.9,137.823,23.85,182.892,23.85,2.672,0,5.318-2.646,5.318,2.646h0Z" fill="#272728"/></svg>